<mxfile host="65bd71144e">
    <diagram id="sCW2SBQG0C8ioyV8iXSO" name="Page-1">
        <mxGraphModel dx="1720" dy="787" grid="1" gridSize="10" guides="1" tooltips="1" connect="1" arrows="1" fold="1" page="1" pageScale="1" pageWidth="827" pageHeight="1169" math="0" shadow="0">
            <root>
                <mxCell id="0"/>
                <mxCell id="1" parent="0"/>
                <mxCell id="9" style="edgeStyle=none;html=1;entryX=0.5;entryY=0;entryDx=0;entryDy=0;" parent="1" source="2" target="8" edge="1">
                    <mxGeometry relative="1" as="geometry"/>
                </mxCell>
                <mxCell id="2" value="start" style="ellipse;whiteSpace=wrap;html=1;aspect=fixed;" parent="1" vertex="1">
                    <mxGeometry x="393" y="110" width="40" height="40" as="geometry"/>
                </mxCell>
                <mxCell id="11" value="success" style="edgeStyle=none;html=1;entryX=0.5;entryY=0;entryDx=0;entryDy=0;" parent="1" source="3" target="14" edge="1">
                    <mxGeometry relative="1" as="geometry">
                        <mxPoint x="412.9999999999998" y="376" as="targetPoint"/>
                    </mxGeometry>
                </mxCell>
                <mxCell id="13" style="edgeStyle=none;html=1;entryX=0;entryY=0.5;entryDx=0;entryDy=0;endArrow=none;endFill=0;dashed=1;" parent="1" source="3" target="12" edge="1">
                    <mxGeometry relative="1" as="geometry"/>
                </mxCell>
                <mxCell id="3" value="Load outage" style="rounded=0;whiteSpace=wrap;html=1;" parent="1" vertex="1">
                    <mxGeometry x="353" y="276" width="120" height="60" as="geometry"/>
                </mxCell>
                <mxCell id="29" value="failure" style="edgeStyle=orthogonalEdgeStyle;html=1;entryX=0.5;entryY=0;entryDx=0;entryDy=0;endArrow=classic;endFill=1;jumpStyle=arc;strokeWidth=1;" parent="1" source="3" target="28" edge="1">
                    <mxGeometry x="-0.6846" relative="1" as="geometry">
                        <mxPoint x="373.0344827586207" y="416.0344827586207" as="sourcePoint"/>
                        <mxPoint as="offset"/>
                    </mxGeometry>
                </mxCell>
                <mxCell id="10" value="0 is default" style="edgeStyle=none;html=1;entryX=0.5;entryY=0;entryDx=0;entryDy=0;" parent="1" source="8" target="3" edge="1">
                    <mxGeometry relative="1" as="geometry"/>
                </mxCell>
                <mxCell id="8" value="retrieves outage id from router params" style="rounded=0;whiteSpace=wrap;html=1;" parent="1" vertex="1">
                    <mxGeometry x="353" y="176" width="120" height="60" as="geometry"/>
                </mxCell>
                <mxCell id="27" style="edgeStyle=none;html=1;endArrow=none;endFill=0;dashed=1;dashPattern=1 1;" parent="1" source="12" target="26" edge="1">
                    <mxGeometry relative="1" as="geometry"/>
                </mxCell>
                <mxCell id="12" value="displays progress spinner" style="rounded=0;whiteSpace=wrap;html=1;fontStyle=2;dashed=1;" parent="1" vertex="1">
                    <mxGeometry x="513" y="276" width="120" height="60" as="geometry"/>
                </mxCell>
                <mxCell id="17" value="yes" style="edgeStyle=none;html=1;entryX=0.5;entryY=0;entryDx=0;entryDy=0;endArrow=classic;endFill=1;" parent="1" source="14" target="16" edge="1">
                    <mxGeometry relative="1" as="geometry"/>
                </mxCell>
                <mxCell id="30" value="status === TBD" style="edgeStyle=orthogonalEdgeStyle;jumpStyle=arc;html=1;entryX=0.5;entryY=0;entryDx=0;entryDy=0;strokeWidth=1;endArrow=classic;endFill=1;" parent="1" source="14" target="28" edge="1">
                    <mxGeometry x="-0.6363" y="19" relative="1" as="geometry">
                        <mxPoint as="offset"/>
                    </mxGeometry>
                </mxCell>
                <mxCell id="14" value="outage&lt;br&gt;eligible ?" style="rhombus;whiteSpace=wrap;html=1;" parent="1" vertex="1">
                    <mxGeometry x="373" y="387" width="80" height="80" as="geometry"/>
                </mxCell>
                <mxCell id="19" value="success" style="edgeStyle=none;html=1;entryX=0.5;entryY=0;entryDx=0;entryDy=0;endArrow=classic;endFill=1;" parent="1" source="16" target="18" edge="1">
                    <mxGeometry relative="1" as="geometry"/>
                </mxCell>
                <mxCell id="31" value="error" style="edgeStyle=orthogonalEdgeStyle;jumpStyle=arc;html=1;entryX=0.5;entryY=0;entryDx=0;entryDy=0;strokeWidth=1;endArrow=classic;endFill=1;" parent="1" source="16" target="28" edge="1">
                    <mxGeometry x="-0.5849" y="9" relative="1" as="geometry">
                        <mxPoint as="offset"/>
                    </mxGeometry>
                </mxCell>
                <mxCell id="16" value="load ballot" style="rounded=0;whiteSpace=wrap;html=1;" parent="1" vertex="1">
                    <mxGeometry x="353" y="507" width="120" height="60" as="geometry"/>
                </mxCell>
                <mxCell id="21" value="yes" style="edgeStyle=none;html=1;entryX=0.5;entryY=0;entryDx=0;entryDy=0;endArrow=classic;endFill=1;" parent="1" source="18" target="20" edge="1">
                    <mxGeometry relative="1" as="geometry"/>
                </mxCell>
                <mxCell id="32" value="no" style="edgeStyle=orthogonalEdgeStyle;jumpStyle=arc;html=1;entryX=0.5;entryY=0;entryDx=0;entryDy=0;strokeWidth=1;endArrow=classic;endFill=1;" parent="1" source="18" target="28" edge="1">
                    <mxGeometry x="-0.409" y="9" relative="1" as="geometry">
                        <mxPoint as="offset"/>
                    </mxGeometry>
                </mxCell>
                <mxCell id="18" value="ballot is&lt;br&gt;open ?" style="rhombus;whiteSpace=wrap;html=1;" parent="1" vertex="1">
                    <mxGeometry x="373" y="607" width="80" height="80" as="geometry"/>
                </mxCell>
                <mxCell id="24" value="no" style="edgeStyle=none;html=1;entryX=0.5;entryY=0;entryDx=0;entryDy=0;endArrow=classic;endFill=1;" parent="1" source="20" target="22" edge="1">
                    <mxGeometry x="-0.3846" y="-11" relative="1" as="geometry">
                        <Array as="points">
                            <mxPoint x="330" y="766"/>
                        </Array>
                        <mxPoint as="offset"/>
                    </mxGeometry>
                </mxCell>
                <mxCell id="25" value="yes" style="edgeStyle=none;html=1;entryX=0.5;entryY=0;entryDx=0;entryDy=0;endArrow=classic;endFill=1;" parent="1" source="20" target="39" edge="1">
                    <mxGeometry x="-0.5385" y="11" relative="1" as="geometry">
                        <Array as="points">
                            <mxPoint x="493" y="767"/>
                        </Array>
                        <mxPoint as="offset"/>
                    </mxGeometry>
                </mxCell>
                <mxCell id="20" value="user already&lt;br&gt;voted ?" style="rhombus;whiteSpace=wrap;html=1;" parent="1" vertex="1">
                    <mxGeometry x="373" y="727" width="80" height="80" as="geometry"/>
                </mxCell>
                <mxCell id="37" style="edgeStyle=orthogonalEdgeStyle;jumpStyle=arc;html=1;entryX=0;entryY=0.5;entryDx=0;entryDy=0;strokeWidth=1;endArrow=classic;endFill=1;exitX=0.5;exitY=1;exitDx=0;exitDy=0;" parent="1" source="22" target="34" edge="1">
                    <mxGeometry relative="1" as="geometry"/>
                </mxCell>
                <mxCell id="22" value="display voting booth" style="rounded=0;whiteSpace=wrap;html=1;" parent="1" vertex="1">
                    <mxGeometry x="270" y="930" width="120" height="60" as="geometry"/>
                </mxCell>
                <mxCell id="36" style="edgeStyle=orthogonalEdgeStyle;jumpStyle=arc;html=1;entryX=1;entryY=0.5;entryDx=0;entryDy=0;strokeWidth=1;endArrow=classic;endFill=1;exitX=0.5;exitY=1;exitDx=0;exitDy=0;" parent="1" source="23" target="34" edge="1">
                    <mxGeometry relative="1" as="geometry"/>
                </mxCell>
                <mxCell id="23" value="display ballots cast" style="rounded=0;whiteSpace=wrap;html=1;" parent="1" vertex="1">
                    <mxGeometry x="433" y="930" width="120" height="60" as="geometry"/>
                </mxCell>
                <mxCell id="26" value="hide progress spinner" style="rounded=0;whiteSpace=wrap;html=1;fontStyle=2;dashed=1;" parent="1" vertex="1">
                    <mxGeometry x="513" y="674" width="120" height="60" as="geometry"/>
                </mxCell>
                <mxCell id="35" style="edgeStyle=orthogonalEdgeStyle;jumpStyle=arc;html=1;entryX=0;entryY=0.5;entryDx=0;entryDy=0;strokeWidth=1;endArrow=classic;endFill=1;exitX=0.5;exitY=1;exitDx=0;exitDy=0;" parent="1" source="28" target="34" edge="1">
                    <mxGeometry relative="1" as="geometry"/>
                </mxCell>
                <mxCell id="28" value="display error message" style="rounded=0;whiteSpace=wrap;html=1;" parent="1" vertex="1">
                    <mxGeometry x="103" y="930" width="120" height="60" as="geometry"/>
                </mxCell>
                <mxCell id="34" value="end" style="ellipse;whiteSpace=wrap;html=1;aspect=fixed;" parent="1" vertex="1">
                    <mxGeometry x="393" y="1039" width="40" height="40" as="geometry"/>
                </mxCell>
                <mxCell id="38" value="Satisfaction page flow diagram" style="text;strokeColor=none;fillColor=none;html=1;fontSize=24;fontStyle=1;verticalAlign=middle;align=center;dashed=1;" parent="1" vertex="1">
                    <mxGeometry x="40" y="40" width="750" height="30" as="geometry"/>
                </mxCell>
                <mxCell id="40" style="edgeStyle=none;html=1;entryX=0.5;entryY=0;entryDx=0;entryDy=0;" edge="1" parent="1" source="39" target="23">
                    <mxGeometry relative="1" as="geometry"/>
                </mxCell>
                <mxCell id="39" value="loads ballots stats" style="whiteSpace=wrap;html=1;" vertex="1" parent="1">
                    <mxGeometry x="433" y="827" width="120" height="60" as="geometry"/>
                </mxCell>
                <mxCell id="41" value="single promise" style="shape=curlyBracket;whiteSpace=wrap;html=1;rounded=1;flipH=1;labelPosition=right;verticalLabelPosition=middle;align=left;verticalAlign=middle;" vertex="1" parent="1">
                    <mxGeometry x="660" y="276" width="20" height="634" as="geometry"/>
                </mxCell>
            </root>
        </mxGraphModel>
    </diagram>
</mxfile>